<svg xmlns="http://www.w3.org/2000/svg" width="225" height="38" viewBox="0 0 225 38"><path fill="#fff" d="M10.65 29.9v-6.5h6.6a3.3 3.3 0 0 1 3.24 3.25c0 1.8-1.45 3.25-3.24 3.25zm0-14.75v-6.5h4.75a3.24 3.24 0 1 1 0 6.5zM19.29 38c5.95 0 11-5.05 11-11 0-3.4-1.7-6.55-4.25-8.6 1.45-1.85 2.4-4.2 2.4-6.74 0-6-5.1-11.15-11.1-11.15H.8V38zm16.16-18.7c0 10.35 8.35 18.7 18.7 18.7a18.7 18.7 0 0 0 18.74-18.7A18.8 18.8 0 0 0 54.14.5a18.75 18.75 0 0 0-18.7 18.8zm27.64-.05c0 4.9-4 8.95-8.95 8.95-4.9 0-8.9-4.05-8.9-8.95a8.93 8.93 0 1 1 17.85 0zM88.6.51h-9.9v22.7A14.7 14.7 0 0 0 93.5 38c8.15 0 14.8-6.55 14.8-14.8V.5h-9.9v22.55a4.9 4.9 0 0 1-9.8 0zM147.4 38V.5h-9.85v17.7L119.8.5h-4V38h9.85V20.25L143.35 38zm36.1-32.04A18.75 18.75 0 1 0 170.29 38c5.2 0 9.9-2.15 13.3-5.55l-7-6.9a8.58 8.58 0 0 1-6.3 2.5 8.5 8.5 0 0 1-8.8-8.8c0-5.1 3.7-8.8 8.8-8.8 2.55 0 4.75.9 6.3 2.46zM224.44.5h-11.35L205.84 13 198.64.5H187.3L201 24.2V38h9.74V24.2z"/></svg>